<svg width="180" height="180" viewBox="0 0 180 180" fill="none" xmlns="http://www.w3.org/2000/svg">
<path d="M30.4415 104.394C34.6744 100.594 41.1445 100.784 45.1469 104.826L75.4182 135.397C79.4444 139.463 79.5448 145.982 75.6458 150.17L61.0914 165.804C55.038 172.306 46.554 175.999 37.6702 175.999H13.8666C8.41744 175.999 4 171.582 4 166.133V142.408C4 133.323 7.86178 124.666 14.6221 118.596L30.4415 104.394Z" fill="url(#paint0_linear_2013_45645)"/>
<path d="M146.001 94.7308C148.503 92.2293 152.56 92.232 155.058 94.7368L169.771 109.488C173.76 113.487 176 118.905 176 124.553V166.133C176 171.582 171.583 175.999 166.133 175.999H75.0335C71.2325 175.999 69.3289 171.403 72.0166 168.716L146.001 94.7308Z" fill="url(#paint1_linear_2013_45645)"/>
<path d="M90.423 63.1997C91.9901 63.1997 93.592 63.9971 93.592 66.2156V68.7117C98.2237 69.301 102.368 70.8957 104.945 73.3916C106.895 75.2289 107.94 77.2742 107.94 79.2155C107.94 81.5035 106.129 83.0983 103.935 83.0983C102.054 83.0983 100.627 82.4395 98.8855 80.9489C95.9254 78.1409 93.418 77.0317 89.9355 77.0317C85.8262 77.0317 83.2142 79.3543 83.2142 82.2663C83.2142 84.8663 85.2342 86.5303 89.6569 87.397L96.2386 88.7488C105.014 90.4475 109.333 94.7809 109.333 101.888C109.333 110.104 103.239 115.789 93.4876 116.933V119.117C93.4876 121.335 91.8857 122.133 90.3186 122.133C88.7515 122.133 87.1148 121.335 87.1147 119.117V117.002C81.8214 116.551 77.1547 114.922 74.2643 112.253C72.3141 110.485 71.1997 108.474 71.1997 106.394C71.1997 103.69 73.1847 102.165 75.6572 102.165C77.1895 102.165 78.4433 102.65 80.4283 104.314C83.5277 107.122 86.9406 108.578 90.4579 108.578C95.3682 108.578 98.0147 106.394 98.0147 103.066C98.0147 100.466 96.0297 98.9409 91.015 97.8662L84.4679 96.4449C76.0403 94.7115 71.7916 90.2049 71.7916 83.133C71.7916 75.125 77.8514 69.5091 87.254 68.6424V66.2156C87.2541 63.9624 88.856 63.1997 90.423 63.1997Z" fill="url(#paint2_linear_2013_45645)"/>
<path d="M108.215 4C112.016 4.0001 113.92 8.59574 111.232 11.2836L11.2836 111.232C8.59574 113.92 4.0001 112.016 4 108.215V13.8666C4 8.41744 8.41744 4 13.8666 4H108.215Z" fill="url(#paint3_linear_2013_45645)"/>
<path d="M166.133 4C171.582 4 175.999 8.41744 175.999 13.8666V42.9287C175.999 47.119 174.356 51.1421 171.421 54.1334L145.458 80.5999C142.966 83.1402 138.88 83.1598 136.364 80.6437L123.01 67.2901C122.594 66.8735 122.594 66.1983 123.01 65.7817L141.449 47.3435C142.139 46.6529 143.282 46.7371 143.865 47.5214L147.611 52.5683C148.973 53.9305 151.094 53.8913 151.404 52.219L157.49 26.3806C157.8 24.7084 156.097 23.0055 154.425 23.3155L128.586 29.4014C126.914 29.7115 126.875 31.8324 128.237 33.1947L133.215 36.8894C133.999 37.4717 134.083 38.6148 133.392 39.3056L114.963 57.7346C114.546 58.1511 113.871 58.1511 113.455 57.7346L99.9907 44.2701C97.4918 41.7711 97.4915 37.7196 99.9899 35.2202L124.95 10.251C128.951 6.24859 134.378 4.00001 140.037 4H166.133Z" fill="url(#paint4_linear_2013_45645)"/>
<path d="M30.4415 104.394C34.6744 100.594 41.1445 100.784 45.1469 104.826L75.4182 135.397C79.4444 139.463 79.5448 145.982 75.6458 150.17L61.0914 165.804C55.038 172.306 46.554 175.999 37.6702 175.999H13.8666C8.41744 175.999 4 171.582 4 166.133V142.408C4 133.323 7.86178 124.666 14.6221 118.596L30.4415 104.394Z" stroke="url(#paint5_linear_2013_45645)" stroke-width="2"/>
<path d="M146.001 94.7308C148.503 92.2293 152.56 92.232 155.058 94.7368L169.771 109.488C173.76 113.487 176 118.905 176 124.553V166.133C176 171.582 171.583 175.999 166.133 175.999H75.0335C71.2325 175.999 69.3289 171.403 72.0166 168.716L146.001 94.7308Z" stroke="url(#paint6_linear_2013_45645)" stroke-width="2"/>
<path d="M90.423 63.1997C91.9901 63.1997 93.592 63.9971 93.592 66.2156V68.7117C98.2237 69.301 102.368 70.8957 104.945 73.3916C106.895 75.2289 107.94 77.2742 107.94 79.2155C107.94 81.5035 106.129 83.0983 103.935 83.0983C102.054 83.0983 100.627 82.4395 98.8855 80.9489C95.9254 78.1409 93.418 77.0317 89.9355 77.0317C85.8262 77.0317 83.2142 79.3543 83.2142 82.2663C83.2142 84.8663 85.2342 86.5303 89.6569 87.397L96.2386 88.7488C105.014 90.4475 109.333 94.7809 109.333 101.888C109.333 110.104 103.239 115.789 93.4876 116.933V119.117C93.4876 121.335 91.8857 122.133 90.3186 122.133C88.7515 122.133 87.1148 121.335 87.1147 119.117V117.002C81.8214 116.551 77.1547 114.922 74.2643 112.253C72.3141 110.485 71.1997 108.474 71.1997 106.394C71.1997 103.69 73.1847 102.165 75.6572 102.165C77.1895 102.165 78.4433 102.65 80.4283 104.314C83.5277 107.122 86.9406 108.578 90.4579 108.578C95.3682 108.578 98.0147 106.394 98.0147 103.066C98.0147 100.466 96.0297 98.9409 91.015 97.8662L84.4679 96.4449C76.0403 94.7115 71.7916 90.2049 71.7916 83.133C71.7916 75.125 77.8514 69.5091 87.254 68.6424V66.2156C87.2541 63.9624 88.856 63.1997 90.423 63.1997Z" stroke="url(#paint7_linear_2013_45645)" stroke-width="2"/>
<path d="M108.215 4C112.016 4.0001 113.92 8.59574 111.232 11.2836L11.2836 111.232C8.59574 113.92 4.0001 112.016 4 108.215V13.8666C4 8.41744 8.41744 4 13.8666 4H108.215Z" stroke="url(#paint8_linear_2013_45645)" stroke-width="2"/>
<path d="M166.133 4C171.582 4 175.999 8.41744 175.999 13.8666V42.9287C175.999 47.119 174.356 51.1421 171.421 54.1334L145.458 80.5999C142.966 83.1402 138.88 83.1598 136.364 80.6437L123.01 67.2901C122.594 66.8735 122.594 66.1983 123.01 65.7817L141.449 47.3435C142.139 46.6529 143.282 46.7371 143.865 47.5214L147.611 52.5683C148.973 53.9305 151.094 53.8913 151.404 52.219L157.49 26.3806C157.8 24.7084 156.097 23.0055 154.425 23.3155L128.586 29.4014C126.914 29.7115 126.875 31.8324 128.237 33.1947L133.215 36.8894C133.999 37.4717 134.083 38.6148 133.392 39.3056L114.963 57.7346C114.546 58.1511 113.871 58.1511 113.455 57.7346L99.9907 44.2701C97.4918 41.7711 97.4915 37.7196 99.9899 35.2202L124.95 10.251C128.951 6.24859 134.378 4.00001 140.037 4H166.133Z" stroke="url(#paint9_linear_2013_45645)" stroke-width="2"/>
<defs>
<linearGradient id="paint0_linear_2013_45645" x1="90" y1="4" x2="90" y2="175.999" gradientUnits="userSpaceOnUse">
<stop stop-color="#7E83FF"/>
<stop offset="1" stop-color="#484ADF"/>
</linearGradient>
<linearGradient id="paint1_linear_2013_45645" x1="90" y1="4" x2="90" y2="175.999" gradientUnits="userSpaceOnUse">
<stop stop-color="#7E83FF"/>
<stop offset="1" stop-color="#484ADF"/>
</linearGradient>
<linearGradient id="paint2_linear_2013_45645" x1="90" y1="4" x2="90" y2="175.999" gradientUnits="userSpaceOnUse">
<stop stop-color="#7E83FF"/>
<stop offset="1" stop-color="#484ADF"/>
</linearGradient>
<linearGradient id="paint3_linear_2013_45645" x1="90" y1="4" x2="90" y2="175.999" gradientUnits="userSpaceOnUse">
<stop stop-color="#7E83FF"/>
<stop offset="1" stop-color="#484ADF"/>
</linearGradient>
<linearGradient id="paint4_linear_2013_45645" x1="90" y1="4" x2="90" y2="175.999" gradientUnits="userSpaceOnUse">
<stop stop-color="#7E83FF"/>
<stop offset="1" stop-color="#484ADF"/>
</linearGradient>
<linearGradient id="paint5_linear_2013_45645" x1="90" y1="4" x2="90" y2="175.999" gradientUnits="userSpaceOnUse">
<stop stop-color="#989BFF"/>
<stop offset="1" stop-color="#232677"/>
</linearGradient>
<linearGradient id="paint6_linear_2013_45645" x1="90" y1="4" x2="90" y2="175.999" gradientUnits="userSpaceOnUse">
<stop stop-color="#989BFF"/>
<stop offset="1" stop-color="#232677"/>
</linearGradient>
<linearGradient id="paint7_linear_2013_45645" x1="90" y1="4" x2="90" y2="175.999" gradientUnits="userSpaceOnUse">
<stop stop-color="#989BFF"/>
<stop offset="1" stop-color="#232677"/>
</linearGradient>
<linearGradient id="paint8_linear_2013_45645" x1="90" y1="4" x2="90" y2="175.999" gradientUnits="userSpaceOnUse">
<stop stop-color="#989BFF"/>
<stop offset="1" stop-color="#232677"/>
</linearGradient>
<linearGradient id="paint9_linear_2013_45645" x1="90" y1="4" x2="90" y2="175.999" gradientUnits="userSpaceOnUse">
<stop stop-color="#989BFF"/>
<stop offset="1" stop-color="#232677"/>
</linearGradient>
</defs>
</svg>
